<svg id="svg" xmlns="http://www.w3.org/2000/svg" xmlns:xlink="http://www.w3.org/1999/xlink" width="400" height="400" viewBox="0, 0, 400,400"><g id="svgg"><path id="path0" d="M102.669 1.503 C 44.095 8.282,8.076 44.964,1.370 104.667 C -0.463 120.986,-0.417 279.029,1.425 295.554 C 7.682 351.667,39.882 386.572,95.011 397.002 C 113.558 400.511,286.356 400.528,304.866 397.023 C 355.371 387.459,387.011 356.221,396.838 306.219 C 399.600 292.165,401.106 143.790,398.788 114.046 C 393.540 46.694,358.476 8.442,295.554 1.425 C 280.214 -0.285,117.554 -0.220,102.669 1.503 M302.667 40.583 C 332.405 47.362,351.469 65.768,358.084 94.086 C 364.395 121.101,364.333 281.952,358.003 306.000 C 350.785 333.420,333.256 350.961,306.000 358.037 C 285.759 363.291,127.837 364.388,100.995 359.460 C 60.603 352.046,42.159 329.482,38.497 283.002 C 36.220 254.115,37.775 110.036,40.500 97.381 C 48.245 61.401,71.741 42.283,112.667 38.659 C 137.244 36.483,291.532 38.045,302.667 40.583 M296.667 70.441 C 274.676 80.917,277.368 110.976,300.857 117.223 C 303.895 118.031,307.195 118.437,308.191 118.124 C 309.186 117.812,311.639 117.197,313.642 116.759 C 322.762 114.762,330.667 103.892,330.667 93.346 C 330.667 75.282,312.375 62.958,296.667 70.441 M183.826 97.428 C 85.750 111.836,64.359 248.083,153.333 291.643 C 244.533 336.293,337.282 240.617,290.374 150.279 C 271.098 113.158,226.691 91.131,183.826 97.428 M216.667 136.482 C 265.137 149.449,281.482 210.492,245.987 245.987 C 203.204 288.770,131.613 256.203,135.000 195.500 C 137.300 154.270,176.707 125.792,216.667 136.482 " stroke="none" fill="#000000" fill-rule="evenodd"></path></g></svg>